<mxfile host="app.diagrams.net" agent="Mozilla/5.0 (Windows NT 10.0; Win64; x64) AppleWebKit/537.36 (KHTML, like Gecko) Chrome/129.0.0.0 Safari/537.36" version="24.7.16">
  <diagram name="PÃ¡gina-1" id="eO8Triz6b7r_QVpiyAp8">
    <mxGraphModel dx="1222" dy="686" grid="1" gridSize="10" guides="1" tooltips="1" connect="1" arrows="1" fold="1" page="1" pageScale="1" pageWidth="827" pageHeight="1169" math="0" shadow="0">
      <root>
        <mxCell id="0" />
        <mxCell id="1" parent="0" />
        <mxCell id="tb2TCrSzxJ7uRepNClkE-67" style="edgeStyle=orthogonalEdgeStyle;rounded=0;orthogonalLoop=1;jettySize=auto;html=1;entryX=0;entryY=0.5;entryDx=0;entryDy=0;" edge="1" parent="1" source="tb2TCrSzxJ7uRepNClkE-70" target="tb2TCrSzxJ7uRepNClkE-72">
          <mxGeometry relative="1" as="geometry" />
        </mxCell>
        <mxCell id="tb2TCrSzxJ7uRepNClkE-68" style="edgeStyle=orthogonalEdgeStyle;rounded=0;orthogonalLoop=1;jettySize=auto;html=1;" edge="1" parent="1" source="tb2TCrSzxJ7uRepNClkE-70" target="tb2TCrSzxJ7uRepNClkE-73">
          <mxGeometry relative="1" as="geometry" />
        </mxCell>
        <mxCell id="tb2TCrSzxJ7uRepNClkE-69" style="edgeStyle=orthogonalEdgeStyle;rounded=0;orthogonalLoop=1;jettySize=auto;html=1;entryX=0;entryY=0.5;entryDx=0;entryDy=0;" edge="1" parent="1" source="tb2TCrSzxJ7uRepNClkE-70" target="tb2TCrSzxJ7uRepNClkE-76">
          <mxGeometry relative="1" as="geometry" />
        </mxCell>
        <mxCell id="tb2TCrSzxJ7uRepNClkE-70" value="denuncias&amp;nbsp;" style="rounded=0;whiteSpace=wrap;html=1;fillColor=#dae8fc;strokeColor=#6c8ebf;" vertex="1" parent="1">
          <mxGeometry x="50" y="170" width="120" height="60" as="geometry" />
        </mxCell>
        <mxCell id="tb2TCrSzxJ7uRepNClkE-71" style="edgeStyle=orthogonalEdgeStyle;rounded=0;orthogonalLoop=1;jettySize=auto;html=1;" edge="1" parent="1" source="tb2TCrSzxJ7uRepNClkE-72" target="tb2TCrSzxJ7uRepNClkE-97">
          <mxGeometry relative="1" as="geometry" />
        </mxCell>
        <mxCell id="tb2TCrSzxJ7uRepNClkE-72" value="id_denuncia" style="ellipse;whiteSpace=wrap;html=1;fillColor=#dae8fc;gradientColor=#7ea6e0;strokeColor=#6c8ebf;" vertex="1" parent="1">
          <mxGeometry x="280" y="40" width="120" height="60" as="geometry" />
        </mxCell>
        <mxCell id="tb2TCrSzxJ7uRepNClkE-73" value="endereco" style="ellipse;whiteSpace=wrap;html=1;fillColor=#dae8fc;gradientColor=#7ea6e0;strokeColor=#6c8ebf;" vertex="1" parent="1">
          <mxGeometry x="280" y="120" width="120" height="60" as="geometry" />
        </mxCell>
        <mxCell id="tb2TCrSzxJ7uRepNClkE-74" value="descricao" style="ellipse;whiteSpace=wrap;html=1;fillColor=#dae8fc;gradientColor=#7ea6e0;strokeColor=#6c8ebf;" vertex="1" parent="1">
          <mxGeometry x="280" y="200" width="120" height="60" as="geometry" />
        </mxCell>
        <mxCell id="tb2TCrSzxJ7uRepNClkE-75" style="edgeStyle=orthogonalEdgeStyle;rounded=0;orthogonalLoop=1;jettySize=auto;html=1;entryX=0;entryY=0.5;entryDx=0;entryDy=0;" edge="1" parent="1" source="tb2TCrSzxJ7uRepNClkE-70" target="tb2TCrSzxJ7uRepNClkE-74">
          <mxGeometry relative="1" as="geometry" />
        </mxCell>
        <mxCell id="tb2TCrSzxJ7uRepNClkE-76" value="data_hora" style="ellipse;whiteSpace=wrap;html=1;fillColor=#dae8fc;gradientColor=#7ea6e0;strokeColor=#6c8ebf;" vertex="1" parent="1">
          <mxGeometry x="280" y="280" width="120" height="60" as="geometry" />
        </mxCell>
        <mxCell id="tb2TCrSzxJ7uRepNClkE-77" style="edgeStyle=orthogonalEdgeStyle;rounded=0;orthogonalLoop=1;jettySize=auto;html=1;" edge="1" parent="1" source="tb2TCrSzxJ7uRepNClkE-79" target="tb2TCrSzxJ7uRepNClkE-81">
          <mxGeometry relative="1" as="geometry" />
        </mxCell>
        <mxCell id="tb2TCrSzxJ7uRepNClkE-78" style="edgeStyle=orthogonalEdgeStyle;rounded=0;orthogonalLoop=1;jettySize=auto;html=1;entryX=0;entryY=0.5;entryDx=0;entryDy=0;" edge="1" parent="1" source="tb2TCrSzxJ7uRepNClkE-79" target="tb2TCrSzxJ7uRepNClkE-82">
          <mxGeometry relative="1" as="geometry" />
        </mxCell>
        <mxCell id="tb2TCrSzxJ7uRepNClkE-79" value="tiposproblemas" style="rounded=0;whiteSpace=wrap;html=1;fillColor=#f8cecc;strokeColor=#b85450;" vertex="1" parent="1">
          <mxGeometry x="50" y="525" width="120" height="60" as="geometry" />
        </mxCell>
        <mxCell id="tb2TCrSzxJ7uRepNClkE-80" style="edgeStyle=orthogonalEdgeStyle;rounded=0;orthogonalLoop=1;jettySize=auto;html=1;entryX=0;entryY=0.5;entryDx=0;entryDy=0;" edge="1" parent="1" source="tb2TCrSzxJ7uRepNClkE-81" target="tb2TCrSzxJ7uRepNClkE-99">
          <mxGeometry relative="1" as="geometry">
            <mxPoint x="500" y="430" as="targetPoint" />
          </mxGeometry>
        </mxCell>
        <mxCell id="tb2TCrSzxJ7uRepNClkE-81" value="id_tipo_problema" style="ellipse;whiteSpace=wrap;html=1;fillColor=#f8cecc;gradientColor=#ea6b66;strokeColor=#b85450;" vertex="1" parent="1">
          <mxGeometry x="280" y="480" width="120" height="60" as="geometry" />
        </mxCell>
        <mxCell id="tb2TCrSzxJ7uRepNClkE-82" value="descricao" style="ellipse;whiteSpace=wrap;html=1;fillColor=#f8cecc;gradientColor=#ea6b66;strokeColor=#b85450;" vertex="1" parent="1">
          <mxGeometry x="280" y="570" width="120" height="60" as="geometry" />
        </mxCell>
        <mxCell id="tb2TCrSzxJ7uRepNClkE-83" style="edgeStyle=orthogonalEdgeStyle;rounded=0;orthogonalLoop=1;jettySize=auto;html=1;entryX=1;entryY=0.5;entryDx=0;entryDy=0;" edge="1" parent="1" source="tb2TCrSzxJ7uRepNClkE-89" target="tb2TCrSzxJ7uRepNClkE-90">
          <mxGeometry relative="1" as="geometry" />
        </mxCell>
        <mxCell id="tb2TCrSzxJ7uRepNClkE-84" style="edgeStyle=orthogonalEdgeStyle;rounded=0;orthogonalLoop=1;jettySize=auto;html=1;entryX=1;entryY=0.5;entryDx=0;entryDy=0;" edge="1" parent="1" source="tb2TCrSzxJ7uRepNClkE-89" target="tb2TCrSzxJ7uRepNClkE-91">
          <mxGeometry relative="1" as="geometry" />
        </mxCell>
        <mxCell id="tb2TCrSzxJ7uRepNClkE-85" style="edgeStyle=orthogonalEdgeStyle;rounded=0;orthogonalLoop=1;jettySize=auto;html=1;entryX=1;entryY=0.5;entryDx=0;entryDy=0;" edge="1" parent="1" source="tb2TCrSzxJ7uRepNClkE-89" target="tb2TCrSzxJ7uRepNClkE-92">
          <mxGeometry relative="1" as="geometry" />
        </mxCell>
        <mxCell id="tb2TCrSzxJ7uRepNClkE-86" style="edgeStyle=orthogonalEdgeStyle;rounded=0;orthogonalLoop=1;jettySize=auto;html=1;entryX=1;entryY=0.5;entryDx=0;entryDy=0;" edge="1" parent="1" source="tb2TCrSzxJ7uRepNClkE-89" target="tb2TCrSzxJ7uRepNClkE-93">
          <mxGeometry relative="1" as="geometry" />
        </mxCell>
        <mxCell id="tb2TCrSzxJ7uRepNClkE-87" style="edgeStyle=orthogonalEdgeStyle;rounded=0;orthogonalLoop=1;jettySize=auto;html=1;entryX=1;entryY=0.5;entryDx=0;entryDy=0;" edge="1" parent="1" source="tb2TCrSzxJ7uRepNClkE-89" target="tb2TCrSzxJ7uRepNClkE-94">
          <mxGeometry relative="1" as="geometry" />
        </mxCell>
        <mxCell id="tb2TCrSzxJ7uRepNClkE-88" style="edgeStyle=orthogonalEdgeStyle;rounded=0;orthogonalLoop=1;jettySize=auto;html=1;entryX=1;entryY=0.5;entryDx=0;entryDy=0;" edge="1" parent="1" source="tb2TCrSzxJ7uRepNClkE-89" target="tb2TCrSzxJ7uRepNClkE-95">
          <mxGeometry relative="1" as="geometry" />
        </mxCell>
        <mxCell id="tb2TCrSzxJ7uRepNClkE-89" value="usuario" style="rounded=0;whiteSpace=wrap;html=1;fillColor=#e1d5e7;strokeColor=#9673a6;" vertex="1" parent="1">
          <mxGeometry x="910" y="230" width="120" height="60" as="geometry" />
        </mxCell>
        <mxCell id="tb2TCrSzxJ7uRepNClkE-90" value="id_usuario" style="ellipse;whiteSpace=wrap;html=1;fillColor=#e6d0de;gradientColor=#d5739d;strokeColor=#996185;" vertex="1" parent="1">
          <mxGeometry x="670" y="40" width="120" height="60" as="geometry" />
        </mxCell>
        <mxCell id="tb2TCrSzxJ7uRepNClkE-91" value="nome_usuario" style="ellipse;whiteSpace=wrap;html=1;fillColor=#e6d0de;gradientColor=#d5739d;strokeColor=#996185;" vertex="1" parent="1">
          <mxGeometry x="670" y="120" width="120" height="60" as="geometry" />
        </mxCell>
        <mxCell id="tb2TCrSzxJ7uRepNClkE-92" value="email_usuario" style="ellipse;whiteSpace=wrap;html=1;fillColor=#e6d0de;gradientColor=#d5739d;strokeColor=#996185;" vertex="1" parent="1">
          <mxGeometry x="670" y="200" width="120" height="60" as="geometry" />
        </mxCell>
        <mxCell id="tb2TCrSzxJ7uRepNClkE-93" value="telefone_usuario" style="ellipse;whiteSpace=wrap;html=1;fillColor=#e6d0de;gradientColor=#d5739d;strokeColor=#996185;" vertex="1" parent="1">
          <mxGeometry x="670" y="280" width="120" height="60" as="geometry" />
        </mxCell>
        <mxCell id="tb2TCrSzxJ7uRepNClkE-94" value="id_denuncia" style="ellipse;whiteSpace=wrap;html=1;fillColor=#e6d0de;gradientColor=#d5739d;strokeColor=#996185;" vertex="1" parent="1">
          <mxGeometry x="670" y="360" width="120" height="60" as="geometry" />
        </mxCell>
        <mxCell id="tb2TCrSzxJ7uRepNClkE-95" value="id_tipo_problema" style="ellipse;whiteSpace=wrap;html=1;fillColor=#e6d0de;gradientColor=#d5739d;strokeColor=#996185;" vertex="1" parent="1">
          <mxGeometry x="670" y="440" width="120" height="60" as="geometry" />
        </mxCell>
        <mxCell id="tb2TCrSzxJ7uRepNClkE-96" style="edgeStyle=orthogonalEdgeStyle;rounded=0;orthogonalLoop=1;jettySize=auto;html=1;entryX=0;entryY=0.5;entryDx=0;entryDy=0;" edge="1" parent="1" source="tb2TCrSzxJ7uRepNClkE-97" target="tb2TCrSzxJ7uRepNClkE-94">
          <mxGeometry relative="1" as="geometry" />
        </mxCell>
        <mxCell id="tb2TCrSzxJ7uRepNClkE-97" value="" style="rhombus;whiteSpace=wrap;html=1;fillColor=#fff2cc;gradientColor=#ffd966;strokeColor=#d6b656;" vertex="1" parent="1">
          <mxGeometry x="520" y="180" width="80" height="80" as="geometry" />
        </mxCell>
        <mxCell id="tb2TCrSzxJ7uRepNClkE-98" style="edgeStyle=orthogonalEdgeStyle;rounded=0;orthogonalLoop=1;jettySize=auto;html=1;" edge="1" parent="1" source="tb2TCrSzxJ7uRepNClkE-99" target="tb2TCrSzxJ7uRepNClkE-95">
          <mxGeometry relative="1" as="geometry" />
        </mxCell>
        <mxCell id="tb2TCrSzxJ7uRepNClkE-99" value="" style="rhombus;whiteSpace=wrap;html=1;fillColor=#fff2cc;gradientColor=#ffd966;strokeColor=#d6b656;" vertex="1" parent="1">
          <mxGeometry x="520" y="430" width="80" height="80" as="geometry" />
        </mxCell>
        <mxCell id="tb2TCrSzxJ7uRepNClkE-100" style="edgeStyle=orthogonalEdgeStyle;rounded=0;orthogonalLoop=1;jettySize=auto;html=1;" edge="1" parent="1" source="tb2TCrSzxJ7uRepNClkE-102" target="tb2TCrSzxJ7uRepNClkE-103">
          <mxGeometry relative="1" as="geometry" />
        </mxCell>
        <mxCell id="tb2TCrSzxJ7uRepNClkE-101" style="edgeStyle=orthogonalEdgeStyle;rounded=0;orthogonalLoop=1;jettySize=auto;html=1;" edge="1" parent="1" source="tb2TCrSzxJ7uRepNClkE-102" target="tb2TCrSzxJ7uRepNClkE-104">
          <mxGeometry relative="1" as="geometry" />
        </mxCell>
        <mxCell id="tb2TCrSzxJ7uRepNClkE-102" value="tipo_acao" style="rounded=0;whiteSpace=wrap;html=1;fillColor=#ffcd28;strokeColor=#d79b00;gradientColor=#ffa500;" vertex="1" parent="1">
          <mxGeometry x="50" y="810" width="120" height="60" as="geometry" />
        </mxCell>
        <mxCell id="tb2TCrSzxJ7uRepNClkE-103" value="id_tipoacao" style="ellipse;whiteSpace=wrap;html=1;fillColor=#ffcd28;gradientColor=#ffa500;strokeColor=#d79b00;" vertex="1" parent="1">
          <mxGeometry x="280" y="750" width="120" height="60" as="geometry" />
        </mxCell>
        <mxCell id="tb2TCrSzxJ7uRepNClkE-104" value="descricao" style="ellipse;whiteSpace=wrap;html=1;fillColor=#ffcd28;gradientColor=#ffa500;strokeColor=#d79b00;" vertex="1" parent="1">
          <mxGeometry x="280" y="840" width="120" height="60" as="geometry" />
        </mxCell>
        <mxCell id="tb2TCrSzxJ7uRepNClkE-105" style="edgeStyle=orthogonalEdgeStyle;rounded=0;orthogonalLoop=1;jettySize=auto;html=1;" edge="1" parent="1" source="tb2TCrSzxJ7uRepNClkE-107" target="tb2TCrSzxJ7uRepNClkE-108">
          <mxGeometry relative="1" as="geometry" />
        </mxCell>
        <mxCell id="tb2TCrSzxJ7uRepNClkE-106" style="edgeStyle=orthogonalEdgeStyle;rounded=0;orthogonalLoop=1;jettySize=auto;html=1;" edge="1" parent="1" source="tb2TCrSzxJ7uRepNClkE-107" target="tb2TCrSzxJ7uRepNClkE-109">
          <mxGeometry relative="1" as="geometry" />
        </mxCell>
        <mxCell id="tb2TCrSzxJ7uRepNClkE-107" value="status_denuncia" style="rounded=0;whiteSpace=wrap;html=1;fillColor=#fff2cc;strokeColor=#d6b656;gradientColor=#ffd966;" vertex="1" parent="1">
          <mxGeometry x="50" y="1030" width="120" height="60" as="geometry" />
        </mxCell>
        <mxCell id="tb2TCrSzxJ7uRepNClkE-108" value="id_status" style="ellipse;whiteSpace=wrap;html=1;fillColor=#fff2cc;gradientColor=#ffd966;strokeColor=#d6b656;" vertex="1" parent="1">
          <mxGeometry x="280" y="990" width="120" height="60" as="geometry" />
        </mxCell>
        <mxCell id="tb2TCrSzxJ7uRepNClkE-109" value="status" style="ellipse;whiteSpace=wrap;html=1;fillColor=#fff2cc;gradientColor=#ffd966;strokeColor=#d6b656;" vertex="1" parent="1">
          <mxGeometry x="280" y="1080" width="120" height="60" as="geometry" />
        </mxCell>
        <mxCell id="tb2TCrSzxJ7uRepNClkE-110" style="edgeStyle=orthogonalEdgeStyle;rounded=0;orthogonalLoop=1;jettySize=auto;html=1;entryX=0;entryY=0.5;entryDx=0;entryDy=0;" edge="1" parent="1" source="tb2TCrSzxJ7uRepNClkE-113" target="tb2TCrSzxJ7uRepNClkE-114">
          <mxGeometry relative="1" as="geometry" />
        </mxCell>
        <mxCell id="tb2TCrSzxJ7uRepNClkE-111" style="edgeStyle=orthogonalEdgeStyle;rounded=0;orthogonalLoop=1;jettySize=auto;html=1;" edge="1" parent="1" source="tb2TCrSzxJ7uRepNClkE-113" target="tb2TCrSzxJ7uRepNClkE-115">
          <mxGeometry relative="1" as="geometry" />
        </mxCell>
        <mxCell id="tb2TCrSzxJ7uRepNClkE-112" style="edgeStyle=orthogonalEdgeStyle;rounded=0;orthogonalLoop=1;jettySize=auto;html=1;entryX=0;entryY=0.5;entryDx=0;entryDy=0;" edge="1" parent="1" source="tb2TCrSzxJ7uRepNClkE-113" target="tb2TCrSzxJ7uRepNClkE-116">
          <mxGeometry relative="1" as="geometry" />
        </mxCell>
        <mxCell id="tb2TCrSzxJ7uRepNClkE-113" value="resolucao" style="rounded=0;whiteSpace=wrap;html=1;fillColor=#f5f5f5;strokeColor=#666666;gradientColor=#b3b3b3;" vertex="1" parent="1">
          <mxGeometry x="660" y="650" width="120" height="60" as="geometry" />
        </mxCell>
        <mxCell id="tb2TCrSzxJ7uRepNClkE-114" value="id_resolucao" style="ellipse;whiteSpace=wrap;html=1;fillColor=#f5f5f5;gradientColor=#b3b3b3;strokeColor=#666666;" vertex="1" parent="1">
          <mxGeometry x="890" y="570" width="120" height="60" as="geometry" />
        </mxCell>
        <mxCell id="tb2TCrSzxJ7uRepNClkE-115" value="descricao" style="ellipse;whiteSpace=wrap;html=1;fillColor=#f5f5f5;gradientColor=#b3b3b3;strokeColor=#666666;" vertex="1" parent="1">
          <mxGeometry x="890" y="650" width="120" height="60" as="geometry" />
        </mxCell>
        <mxCell id="tb2TCrSzxJ7uRepNClkE-116" value="data_resolucao" style="ellipse;whiteSpace=wrap;html=1;fillColor=#f5f5f5;gradientColor=#b3b3b3;strokeColor=#666666;" vertex="1" parent="1">
          <mxGeometry x="890" y="760" width="120" height="60" as="geometry" />
        </mxCell>
        <mxCell id="tb2TCrSzxJ7uRepNClkE-117" style="edgeStyle=orthogonalEdgeStyle;rounded=0;orthogonalLoop=1;jettySize=auto;html=1;entryX=0;entryY=0.5;entryDx=0;entryDy=0;fillColor=#b0e3e6;strokeColor=#0e8088;" edge="1" parent="1" source="tb2TCrSzxJ7uRepNClkE-121" target="tb2TCrSzxJ7uRepNClkE-122">
          <mxGeometry relative="1" as="geometry" />
        </mxCell>
        <mxCell id="tb2TCrSzxJ7uRepNClkE-118" style="edgeStyle=orthogonalEdgeStyle;rounded=0;orthogonalLoop=1;jettySize=auto;html=1;fillColor=#b0e3e6;strokeColor=#0e8088;" edge="1" parent="1" source="tb2TCrSzxJ7uRepNClkE-121" target="tb2TCrSzxJ7uRepNClkE-123">
          <mxGeometry relative="1" as="geometry" />
        </mxCell>
        <mxCell id="tb2TCrSzxJ7uRepNClkE-119" style="edgeStyle=orthogonalEdgeStyle;rounded=0;orthogonalLoop=1;jettySize=auto;html=1;entryX=0;entryY=0.5;entryDx=0;entryDy=0;fillColor=#b0e3e6;strokeColor=#0e8088;" edge="1" parent="1" source="tb2TCrSzxJ7uRepNClkE-121" target="tb2TCrSzxJ7uRepNClkE-124">
          <mxGeometry relative="1" as="geometry" />
        </mxCell>
        <mxCell id="tb2TCrSzxJ7uRepNClkE-120" style="edgeStyle=orthogonalEdgeStyle;rounded=0;orthogonalLoop=1;jettySize=auto;html=1;entryX=0;entryY=0.5;entryDx=0;entryDy=0;fillColor=#b0e3e6;strokeColor=#0e8088;" edge="1" parent="1" source="tb2TCrSzxJ7uRepNClkE-121" target="tb2TCrSzxJ7uRepNClkE-125">
          <mxGeometry relative="1" as="geometry" />
        </mxCell>
        <mxCell id="tb2TCrSzxJ7uRepNClkE-121" value="localizacao" style="rounded=0;whiteSpace=wrap;html=1;fillColor=#b0e3e6;strokeColor=#0e8088;" vertex="1" parent="1">
          <mxGeometry x="1220" y="250" width="120" height="60" as="geometry" />
        </mxCell>
        <mxCell id="tb2TCrSzxJ7uRepNClkE-122" value="id_localizacao" style="ellipse;whiteSpace=wrap;html=1;fillColor=#b0e3e6;strokeColor=#0e8088;" vertex="1" parent="1">
          <mxGeometry x="1460" y="110" width="120" height="60" as="geometry" />
        </mxCell>
        <mxCell id="tb2TCrSzxJ7uRepNClkE-123" value="endereco" style="ellipse;whiteSpace=wrap;html=1;fillColor=#b0e3e6;strokeColor=#0e8088;" vertex="1" parent="1">
          <mxGeometry x="1460" y="200" width="120" height="60" as="geometry" />
        </mxCell>
        <mxCell id="tb2TCrSzxJ7uRepNClkE-124" value="cidade" style="ellipse;whiteSpace=wrap;html=1;fillColor=#b0e3e6;strokeColor=#0e8088;" vertex="1" parent="1">
          <mxGeometry x="1460" y="290" width="120" height="60" as="geometry" />
        </mxCell>
        <mxCell id="tb2TCrSzxJ7uRepNClkE-125" value="estado" style="ellipse;whiteSpace=wrap;html=1;fillColor=#b0e3e6;strokeColor=#0e8088;" vertex="1" parent="1">
          <mxGeometry x="1460" y="380" width="120" height="60" as="geometry" />
        </mxCell>
        <mxCell id="tb2TCrSzxJ7uRepNClkE-126" style="edgeStyle=orthogonalEdgeStyle;rounded=0;orthogonalLoop=1;jettySize=auto;html=1;entryX=0;entryY=0.5;entryDx=0;entryDy=0;fillColor=#d0cee2;strokeColor=#56517e;" edge="1" parent="1" source="tb2TCrSzxJ7uRepNClkE-129" target="tb2TCrSzxJ7uRepNClkE-131">
          <mxGeometry relative="1" as="geometry" />
        </mxCell>
        <mxCell id="tb2TCrSzxJ7uRepNClkE-127" style="edgeStyle=orthogonalEdgeStyle;rounded=0;orthogonalLoop=1;jettySize=auto;html=1;fillColor=#d0cee2;strokeColor=#56517e;" edge="1" parent="1" source="tb2TCrSzxJ7uRepNClkE-129" target="tb2TCrSzxJ7uRepNClkE-130">
          <mxGeometry relative="1" as="geometry" />
        </mxCell>
        <mxCell id="tb2TCrSzxJ7uRepNClkE-128" style="edgeStyle=orthogonalEdgeStyle;rounded=0;orthogonalLoop=1;jettySize=auto;html=1;entryX=0;entryY=0.5;entryDx=0;entryDy=0;fillColor=#d0cee2;strokeColor=#56517e;" edge="1" parent="1" source="tb2TCrSzxJ7uRepNClkE-129" target="tb2TCrSzxJ7uRepNClkE-132">
          <mxGeometry relative="1" as="geometry" />
        </mxCell>
        <mxCell id="tb2TCrSzxJ7uRepNClkE-129" value="feedbak" style="rounded=0;whiteSpace=wrap;html=1;fillColor=#d0cee2;strokeColor=#56517e;" vertex="1" parent="1">
          <mxGeometry x="1230" y="600" width="120" height="60" as="geometry" />
        </mxCell>
        <mxCell id="tb2TCrSzxJ7uRepNClkE-130" value="feedbak" style="ellipse;whiteSpace=wrap;html=1;fillColor=#d0cee2;strokeColor=#56517e;" vertex="1" parent="1">
          <mxGeometry x="1460" y="600" width="120" height="60" as="geometry" />
        </mxCell>
        <mxCell id="tb2TCrSzxJ7uRepNClkE-131" value="id_feedbak" style="ellipse;whiteSpace=wrap;html=1;fillColor=#d0cee2;strokeColor=#56517e;" vertex="1" parent="1">
          <mxGeometry x="1460" y="525" width="120" height="60" as="geometry" />
        </mxCell>
        <mxCell id="tb2TCrSzxJ7uRepNClkE-132" value="data_feedbak" style="ellipse;whiteSpace=wrap;html=1;fillColor=#d0cee2;strokeColor=#56517e;" vertex="1" parent="1">
          <mxGeometry x="1460" y="680" width="120" height="60" as="geometry" />
        </mxCell>
        <mxCell id="tb2TCrSzxJ7uRepNClkE-133" style="edgeStyle=orthogonalEdgeStyle;rounded=0;orthogonalLoop=1;jettySize=auto;html=1;entryX=0;entryY=0.5;entryDx=0;entryDy=0;fillColor=#6d8764;strokeColor=#3A5431;" edge="1" parent="1" source="tb2TCrSzxJ7uRepNClkE-136" target="tb2TCrSzxJ7uRepNClkE-138">
          <mxGeometry relative="1" as="geometry" />
        </mxCell>
        <mxCell id="tb2TCrSzxJ7uRepNClkE-134" style="edgeStyle=orthogonalEdgeStyle;rounded=0;orthogonalLoop=1;jettySize=auto;html=1;fillColor=#6d8764;strokeColor=#3A5431;" edge="1" parent="1" source="tb2TCrSzxJ7uRepNClkE-136" target="tb2TCrSzxJ7uRepNClkE-137">
          <mxGeometry relative="1" as="geometry" />
        </mxCell>
        <mxCell id="tb2TCrSzxJ7uRepNClkE-135" style="edgeStyle=orthogonalEdgeStyle;rounded=0;orthogonalLoop=1;jettySize=auto;html=1;entryX=0;entryY=0.5;entryDx=0;entryDy=0;fillColor=#6d8764;strokeColor=#3A5431;" edge="1" parent="1" source="tb2TCrSzxJ7uRepNClkE-136" target="tb2TCrSzxJ7uRepNClkE-139">
          <mxGeometry relative="1" as="geometry" />
        </mxCell>
        <mxCell id="tb2TCrSzxJ7uRepNClkE-136" value="comentario" style="rounded=0;whiteSpace=wrap;html=1;fillColor=#6d8764;strokeColor=#3A5431;fontColor=#ffffff;" vertex="1" parent="1">
          <mxGeometry x="1230" y="867.5" width="120" height="60" as="geometry" />
        </mxCell>
        <mxCell id="tb2TCrSzxJ7uRepNClkE-137" value="comentario" style="ellipse;whiteSpace=wrap;html=1;fillColor=#6d8764;strokeColor=#3A5431;fontColor=#ffffff;" vertex="1" parent="1">
          <mxGeometry x="1460" y="867.5" width="120" height="60" as="geometry" />
        </mxCell>
        <mxCell id="tb2TCrSzxJ7uRepNClkE-138" value="id_comentario" style="ellipse;whiteSpace=wrap;html=1;fillColor=#6d8764;strokeColor=#3A5431;fontColor=#ffffff;" vertex="1" parent="1">
          <mxGeometry x="1460" y="792.5" width="120" height="60" as="geometry" />
        </mxCell>
        <mxCell id="tb2TCrSzxJ7uRepNClkE-139" value="data_comentario" style="ellipse;whiteSpace=wrap;html=1;fillColor=#6d8764;strokeColor=#3A5431;fontColor=#ffffff;" vertex="1" parent="1">
          <mxGeometry x="1460" y="947.5" width="120" height="60" as="geometry" />
        </mxCell>
        <mxCell id="tb2TCrSzxJ7uRepNClkE-140" style="edgeStyle=orthogonalEdgeStyle;rounded=0;orthogonalLoop=1;jettySize=auto;html=1;entryX=0;entryY=0.5;entryDx=0;entryDy=0;fillColor=#bac8d3;strokeColor=#23445d;" edge="1" parent="1" source="tb2TCrSzxJ7uRepNClkE-143" target="tb2TCrSzxJ7uRepNClkE-144">
          <mxGeometry relative="1" as="geometry" />
        </mxCell>
        <mxCell id="tb2TCrSzxJ7uRepNClkE-141" style="edgeStyle=orthogonalEdgeStyle;rounded=0;orthogonalLoop=1;jettySize=auto;html=1;fillColor=#bac8d3;strokeColor=#23445d;" edge="1" parent="1" source="tb2TCrSzxJ7uRepNClkE-143" target="tb2TCrSzxJ7uRepNClkE-145">
          <mxGeometry relative="1" as="geometry" />
        </mxCell>
        <mxCell id="tb2TCrSzxJ7uRepNClkE-142" style="edgeStyle=orthogonalEdgeStyle;rounded=0;orthogonalLoop=1;jettySize=auto;html=1;entryX=0;entryY=0.5;entryDx=0;entryDy=0;fillColor=#bac8d3;strokeColor=#23445d;" edge="1" parent="1" source="tb2TCrSzxJ7uRepNClkE-143" target="tb2TCrSzxJ7uRepNClkE-146">
          <mxGeometry relative="1" as="geometry" />
        </mxCell>
        <mxCell id="tb2TCrSzxJ7uRepNClkE-143" value="evidencia" style="rounded=0;whiteSpace=wrap;html=1;fillColor=#bac8d3;strokeColor=#23445d;" vertex="1" parent="1">
          <mxGeometry x="660" y="950" width="120" height="60" as="geometry" />
        </mxCell>
        <mxCell id="tb2TCrSzxJ7uRepNClkE-144" value="id_evidencia" style="ellipse;whiteSpace=wrap;html=1;fillColor=#bac8d3;strokeColor=#23445d;" vertex="1" parent="1">
          <mxGeometry x="890" y="870" width="120" height="60" as="geometry" />
        </mxCell>
        <mxCell id="tb2TCrSzxJ7uRepNClkE-145" value="tipo_evidencia" style="ellipse;whiteSpace=wrap;html=1;fillColor=#bac8d3;strokeColor=#23445d;" vertex="1" parent="1">
          <mxGeometry x="890" y="950" width="120" height="60" as="geometry" />
        </mxCell>
        <mxCell id="tb2TCrSzxJ7uRepNClkE-146" value="local_evidencia" style="ellipse;whiteSpace=wrap;html=1;fillColor=#bac8d3;strokeColor=#23445d;" vertex="1" parent="1">
          <mxGeometry x="890" y="1060" width="120" height="60" as="geometry" />
        </mxCell>
        <mxCell id="tb2TCrSzxJ7uRepNClkE-147" style="edgeStyle=orthogonalEdgeStyle;rounded=0;orthogonalLoop=1;jettySize=auto;html=1;entryX=0;entryY=0.5;entryDx=0;entryDy=0;fillColor=#e51400;strokeColor=#B20000;" edge="1" parent="1" source="tb2TCrSzxJ7uRepNClkE-152" target="tb2TCrSzxJ7uRepNClkE-154">
          <mxGeometry relative="1" as="geometry" />
        </mxCell>
        <mxCell id="tb2TCrSzxJ7uRepNClkE-148" style="edgeStyle=orthogonalEdgeStyle;rounded=0;orthogonalLoop=1;jettySize=auto;html=1;fillColor=#e51400;strokeColor=#B20000;entryX=0;entryY=0.5;entryDx=0;entryDy=0;" edge="1" parent="1" source="tb2TCrSzxJ7uRepNClkE-152" target="tb2TCrSzxJ7uRepNClkE-153">
          <mxGeometry relative="1" as="geometry" />
        </mxCell>
        <mxCell id="tb2TCrSzxJ7uRepNClkE-149" style="edgeStyle=orthogonalEdgeStyle;rounded=0;orthogonalLoop=1;jettySize=auto;html=1;entryX=0;entryY=0.5;entryDx=0;entryDy=0;fillColor=#e51400;strokeColor=#B20000;" edge="1" parent="1" source="tb2TCrSzxJ7uRepNClkE-152" target="tb2TCrSzxJ7uRepNClkE-155">
          <mxGeometry relative="1" as="geometry" />
        </mxCell>
        <mxCell id="tb2TCrSzxJ7uRepNClkE-150" style="edgeStyle=orthogonalEdgeStyle;rounded=0;orthogonalLoop=1;jettySize=auto;html=1;entryX=0;entryY=0.5;entryDx=0;entryDy=0;fillColor=#e51400;strokeColor=#B20000;" edge="1" parent="1" source="tb2TCrSzxJ7uRepNClkE-152" target="tb2TCrSzxJ7uRepNClkE-156">
          <mxGeometry relative="1" as="geometry" />
        </mxCell>
        <mxCell id="tb2TCrSzxJ7uRepNClkE-151" style="edgeStyle=orthogonalEdgeStyle;rounded=0;orthogonalLoop=1;jettySize=auto;html=1;entryX=0;entryY=0.5;entryDx=0;entryDy=0;fillColor=#e51400;strokeColor=#B20000;" edge="1" parent="1" source="tb2TCrSzxJ7uRepNClkE-152" target="tb2TCrSzxJ7uRepNClkE-157">
          <mxGeometry relative="1" as="geometry" />
        </mxCell>
        <mxCell id="tb2TCrSzxJ7uRepNClkE-152" value="empresa_responsavel" style="rounded=0;whiteSpace=wrap;html=1;fillColor=#e51400;strokeColor=#B20000;fontColor=#ffffff;" vertex="1" parent="1">
          <mxGeometry x="1710" y="327.5" width="120" height="60" as="geometry" />
        </mxCell>
        <mxCell id="tb2TCrSzxJ7uRepNClkE-153" value="nome_empresa" style="ellipse;whiteSpace=wrap;html=1;fillColor=#e51400;strokeColor=#B20000;fontColor=#ffffff;" vertex="1" parent="1">
          <mxGeometry x="1948" y="247.5" width="120" height="60" as="geometry" />
        </mxCell>
        <mxCell id="tb2TCrSzxJ7uRepNClkE-154" value="id_empresa" style="ellipse;whiteSpace=wrap;html=1;fillColor=#e51400;strokeColor=#B20000;fontColor=#ffffff;" vertex="1" parent="1">
          <mxGeometry x="1948" y="172.5" width="120" height="60" as="geometry" />
        </mxCell>
        <mxCell id="tb2TCrSzxJ7uRepNClkE-155" value="endereco_empresa" style="ellipse;whiteSpace=wrap;html=1;fillColor=#e51400;strokeColor=#B20000;fontColor=#ffffff;" vertex="1" parent="1">
          <mxGeometry x="1948" y="327.5" width="120" height="60" as="geometry" />
        </mxCell>
        <mxCell id="tb2TCrSzxJ7uRepNClkE-156" value="email_empresa" style="ellipse;whiteSpace=wrap;html=1;fillColor=#e51400;strokeColor=#B20000;fontColor=#ffffff;" vertex="1" parent="1">
          <mxGeometry x="1948" y="410" width="120" height="60" as="geometry" />
        </mxCell>
        <mxCell id="tb2TCrSzxJ7uRepNClkE-157" value="telefone_empresa" style="ellipse;whiteSpace=wrap;html=1;fillColor=#e51400;strokeColor=#B20000;fontColor=#ffffff;" vertex="1" parent="1">
          <mxGeometry x="1948" y="490" width="120" height="60" as="geometry" />
        </mxCell>
        <mxCell id="tb2TCrSzxJ7uRepNClkE-158" style="edgeStyle=orthogonalEdgeStyle;rounded=0;orthogonalLoop=1;jettySize=auto;html=1;entryX=0;entryY=0.5;entryDx=0;entryDy=0;fillColor=#647687;strokeColor=#314354;" edge="1" parent="1" source="tb2TCrSzxJ7uRepNClkE-161" target="tb2TCrSzxJ7uRepNClkE-162">
          <mxGeometry relative="1" as="geometry" />
        </mxCell>
        <mxCell id="tb2TCrSzxJ7uRepNClkE-159" style="edgeStyle=orthogonalEdgeStyle;rounded=0;orthogonalLoop=1;jettySize=auto;html=1;fillColor=#647687;strokeColor=#314354;" edge="1" parent="1" source="tb2TCrSzxJ7uRepNClkE-161" target="tb2TCrSzxJ7uRepNClkE-163">
          <mxGeometry relative="1" as="geometry" />
        </mxCell>
        <mxCell id="tb2TCrSzxJ7uRepNClkE-160" style="edgeStyle=orthogonalEdgeStyle;rounded=0;orthogonalLoop=1;jettySize=auto;html=1;entryX=0;entryY=0.5;entryDx=0;entryDy=0;fillColor=#647687;strokeColor=#314354;" edge="1" parent="1" source="tb2TCrSzxJ7uRepNClkE-161" target="tb2TCrSzxJ7uRepNClkE-164">
          <mxGeometry relative="1" as="geometry" />
        </mxCell>
        <mxCell id="tb2TCrSzxJ7uRepNClkE-161" value="acao_executada" style="rounded=0;whiteSpace=wrap;html=1;fillColor=#647687;strokeColor=#314354;fontColor=#ffffff;" vertex="1" parent="1">
          <mxGeometry x="1710" y="687.5" width="120" height="60" as="geometry" />
        </mxCell>
        <mxCell id="tb2TCrSzxJ7uRepNClkE-162" value="id_acaoexecutada" style="ellipse;whiteSpace=wrap;html=1;fillColor=#647687;strokeColor=#314354;fontColor=#ffffff;" vertex="1" parent="1">
          <mxGeometry x="1948" y="597.5" width="120" height="60" as="geometry" />
        </mxCell>
        <mxCell id="tb2TCrSzxJ7uRepNClkE-163" value="nome_responsavel" style="ellipse;whiteSpace=wrap;html=1;fillColor=#647687;strokeColor=#314354;fontColor=#ffffff;" vertex="1" parent="1">
          <mxGeometry x="1948" y="687.5" width="120" height="60" as="geometry" />
        </mxCell>
        <mxCell id="tb2TCrSzxJ7uRepNClkE-164" value="descricao" style="ellipse;whiteSpace=wrap;html=1;fillColor=#647687;strokeColor=#314354;fontColor=#ffffff;" vertex="1" parent="1">
          <mxGeometry x="1948" y="777.5" width="120" height="60" as="geometry" />
        </mxCell>
      </root>
    </mxGraphModel>
  </diagram>
</mxfile>
